# xmcd
# Copyright (C) 1995-1998 Ti Kan
#
# Track frame offsets:
#       150
#       15824
#       35363
#       50197
#       67424
#       86547
#       95388
#       108148
#       118882
#       133239
#       151682
#       168882
#       183631
#       206281
#       218199
#       236167
#
# Disc length: 3412 seconds
#
# Revision: 0
# Processed by: cddbd v1.4PL0 Copyright (c) Steve Scherf et al.
# Submitted via: CD-Transfer v1.0
#
DISCID=da0d5210
DTITLE=Various Artist - Röselirock
DYEAR=01
DGENRE=
TTITLE0=Autseid - S'isch nümme die Zyt
TTITLE1=Corin Curschellas and Sud des Alpes - Mys Büeli geit über 
TTITLE2=Toni Vescoli - Der Köbel
TTITLE3=John Brack - Im Aargäu sy zwöi Liebi
TTITLE4=Christine Lauterburg - Ds Vreneli vom Guggisberg
TTITLE5=Bluesmax - Du fragsch mi, wär i bi
TTITLE6=Karin and Peter Glanzmann - s isch mer alles ei ding
TTITLE7=Swiss Made Chaos - Es wott es Froueli z Märit gah
TTITLE8=Singtonic fest. Yvonne Moore - Papa was an Appezeller
TTITLE9=Sina - Es het e Puur es Töchterli
TTITLE10=Girlandia - Bin alben e wärti Tächter gsi
TTITLE11=Langnouer Gipfelträffe - Niene geit's so schön u luschtig
TTITLE12=Marco Zappa - Muratori
TTITLE13=Stefanoni - Meiteli, wnn du witt go tanze
TTITLE14=Dodo Hug - Ha-n-ame-n Ort es Blüemli gseh
TTITLE15=Rumpelstilz - Stets i Truure
EXTD=
EXTT0=
EXTT1=
EXTT2=
EXTT3=
EXTT4=
EXTT5=
EXTT6=
EXTT7=
EXTT8=
EXTT9=
EXTT10=
EXTT11=
EXTT12=
EXTT13=
EXTT14=
EXTT15=
PLAYORDER=
